<svg width="91" height="155" viewBox="0 0 91 155" fill="none" xmlns="http://www.w3.org/2000/svg">
<path fill-rule="evenodd" clip-rule="evenodd" d="M44.3826 6.86754C46.4217 6.84542 48.1064 9.68701 48.1446 13.2143L48.2801 25.7105C48.4185 27.9465 48.583 30.1778 48.7538 32.4078C50.6084 32.7336 52.0787 35.4288 52.1144 38.7217C52.1438 41.4324 51.1922 43.7594 49.8245 44.7015L50.0862 47.3389C51.2248 58.5821 52.9078 72.0333 55.213 83.4012L56.2921 83.3895C58.3312 83.3674 60.0158 86.2089 60.0541 89.7363C60.0807 92.1946 59.3007 94.3372 58.135 95.4178C58.8184 97.8077 59.5524 100.18 60.3189 102.509L63.8854 102.47C65.9245 102.448 67.6091 105.289 67.6474 108.817C67.6802 111.84 66.4935 114.385 64.8699 115.065C67.7972 122.497 70.952 129.757 74.4197 136.475C75.394 138.351 75.6516 141.026 75.0777 143.314C74.5035 145.602 73.2044 147.082 71.7558 147.098L56.9847 147.258C55.7036 147.272 54.5148 146.139 53.8254 144.304L53.5911 143.584C53.0947 141.882 52.3908 140.348 51.6128 139.004C50.2372 136.628 48.3399 134.577 45.7679 134.604C43.1956 134.632 41.3432 136.725 40.0194 139.13C39.4269 140.207 38.8768 141.422 38.4456 142.732L38.1408 143.751C37.5622 146.019 36.2693 147.483 34.828 147.498L20.057 147.658C18.6081 147.674 17.2771 146.223 16.6536 143.947C16.0339 141.686 16.2426 138.973 17.1669 137.088C20.4883 130.294 23.4778 122.986 26.2463 115.484C24.6084 114.839 23.3669 112.32 23.3341 109.297C23.2959 105.77 24.9182 102.893 26.9576 102.87L30.5238 102.832C31.2396 100.487 31.9223 98.0994 32.5534 95.6953C31.3647 94.6402 30.5385 92.515 30.5119 90.0567C30.4736 86.5293 32.0959 83.652 34.1353 83.6298L35.2142 83.6181C37.0435 73.4713 38.3458 61.6893 39.2409 51.2845L39.7621 44.8106C38.3743 43.8984 37.3728 41.5926 37.3434 38.8819C37.3077 35.589 38.7188 32.8625 40.5659 32.4966C40.6883 30.2635 40.8044 28.0291 40.8946 25.7906L40.7591 13.2944C40.7208 9.7671 42.3431 6.88966 44.3826 6.86754ZM56.1953 115.329L34.9247 115.559C32.3871 123.072 29.7582 129.693 27.599 134.802L32.5817 134.747C33.0865 133.421 33.7663 131.847 34.6389 130.262C36.8521 126.241 40.4695 121.887 45.6294 121.831C50.7889 121.775 54.5 126.05 56.7996 130.022C57.7067 131.588 58.4205 133.146 58.9537 134.461L63.9367 134.407C61.667 129.347 58.895 122.784 56.1953 115.329ZM50.2375 96.2304L40.4668 96.3364L39.6833 99.5547L38.8459 102.742L51.9969 102.599L51.0906 99.431L50.2375 96.2304ZM45.0487 68.2892C44.6052 72.1151 44.1048 75.9814 43.5416 79.7725L42.9571 83.5342L47.4701 83.4852C46.5547 78.5333 45.7502 73.3763 45.0487 68.2892Z" fill="#009EE2"/>
</svg>
