<svg width="80" height="59" viewBox="0 0 80 59" fill="none" xmlns="http://www.w3.org/2000/svg">
<path fill-rule="evenodd" clip-rule="evenodd" d="M53.6352 2.25657C52.9782 0.962485 51.8345 0.176588 50.6029 0.173075C49.3715 0.169563 48.2229 0.948977 47.5581 2.23928L38.0031 20.789L31.81 10.7927C31.1321 9.69863 30.0853 9.05595 28.9736 9.05146C27.862 9.04698 26.8102 9.6812 26.124 10.7698L0.783267 50.97C-0.0656073 52.3162 -0.22412 54.1456 0.374747 55.6835C0.973649 57.2209 2.22528 58.1996 3.60039 58.2043L53.9713 58.3773C53.9955 58.3774 54.02 58.3774 54.0444 58.3775L75.6073 58.4516C76.9214 58.4561 78.1342 57.57 78.7713 56.1398C79.4084 54.71 79.3691 52.9627 78.6685 51.5821L53.6352 2.25657ZM55.7969 49.4305L69.0793 49.4762L55.0284 21.7901L52.4777 43.3376C52.454 43.5376 52.4202 43.7322 52.3767 43.9214L55.7969 49.4305ZM48.2648 17.4565L42.679 28.3002L46.2922 34.1202L48.2648 17.4565ZM35.6314 31.6109C35.5569 31.5112 35.4856 31.4067 35.4179 31.2972L31.9294 25.6666L26.4059 49.3296L46.6747 49.3992L35.6314 31.6109ZM18.9171 49.3039L23.5872 29.2969L10.9925 49.2767L18.9171 49.3039Z" fill="#009EE2"/>
</svg>
