<svg width="66" height="86" viewBox="0 0 66 86" fill="none" xmlns="http://www.w3.org/2000/svg">
<path fill-rule="evenodd" clip-rule="evenodd" d="M31.8096 7.87731C32.9414 7.84533 33.961 8.77252 34.3642 10.1522L34.4585 10.5393C34.9221 12.8954 36.1082 14.0432 37.6005 15.0402L38.7902 15.791C40.5175 16.8664 42.7872 18.3994 44.76 21.3487C46.8674 24.495 48.2111 28.5034 48.3359 32.9236C48.4146 35.7069 48.0011 38.3663 47.1962 40.773C47.0385 41.2442 46.8388 41.6961 46.6285 42.1402L45.9971 43.4606L46.6585 66.872L51.9272 66.7232L51.4339 49.2624C51.4224 48.8541 51.4643 48.4605 51.5512 48.0935C50.6289 47.1584 50.0153 45.7065 49.9688 44.0613C49.9381 42.9765 50.2593 41.2216 50.7422 39.4497L51.086 38.2731C51.8738 35.7495 52.9109 33.4934 53.6244 33.4732C54.3379 33.453 55.5006 35.647 56.4296 38.1222L56.8393 39.2775C57.4215 41.0192 57.8412 42.7532 57.8719 43.8381C57.9183 45.4832 57.3876 46.9675 56.5196 47.9531C56.5913 48.1941 56.6436 48.4481 56.674 48.7116L56.7027 49.1135L57.1959 66.5744C58.6509 66.5333 59.8745 68.0634 59.9289 69.9921C59.9795 71.7831 59.0043 73.2878 57.6998 73.5265L57.3932 73.5587L9.97473 74.8982C8.51982 74.9393 7.2962 73.4092 7.24172 71.4805C7.19112 69.6895 8.16641 68.1848 9.47087 67.9461L9.77743 67.9139L9.28417 50.4531C9.27264 50.0448 9.31443 49.6512 9.4013 49.2842C8.47917 48.3491 7.86549 46.8972 7.81902 45.252C7.78837 44.1672 8.10955 42.4122 8.59245 40.6404L8.93626 39.4638C9.72405 36.9402 10.7611 34.6841 11.4746 34.6639C12.1881 34.6437 13.3509 36.8377 14.2799 39.3128L14.6896 40.4681C15.2717 42.2099 15.6915 43.9439 15.7221 45.0288C15.7686 46.6739 15.2378 48.1582 14.37 49.1438C14.4416 49.3848 14.4939 49.6388 14.5242 49.9023L14.5529 50.3042L15.0461 67.7651L20.3139 67.6162L19.6525 44.2041L18.9482 42.9218C18.7134 42.4904 18.4887 42.0505 18.3048 41.5891C17.3652 39.2318 16.8022 36.5999 16.7236 33.8166C16.5988 29.3975 17.7128 25.3192 19.6393 22.0585C21.2917 19.2617 23.26 17.6353 24.8577 16.4815L25.6882 15.8948C27.342 14.7408 28.7196 13.6321 29.2164 11.256L29.3152 10.6846C29.538 9.07919 30.5749 7.91219 31.8096 7.87731ZM40.7979 46.0679L24.9907 46.5144L25.5826 67.4674L30.8523 67.3185L30.6057 58.5881C30.5564 56.842 32.4335 53.2941 33.0921 53.2755C33.7507 53.2569 35.8251 56.6932 35.8744 58.4393L36.121 67.1697L41.3898 67.0209L40.7979 46.0679ZM32.111 18.5283C31.121 19.8957 29.9053 20.868 28.6609 21.7693L28.0372 22.2155C26.3696 23.3994 25.0354 24.3466 23.8107 26.4194C22.5785 28.5051 21.9173 31.0115 21.9923 33.6678C22.0474 35.6193 22.506 37.2905 23.2531 38.8849L23.5906 39.5641L41.8039 39.0495C42.6464 37.1975 43.1302 35.303 43.0672 33.0724C42.9922 30.4166 42.1888 27.9498 40.8403 25.9364C39.6489 24.155 38.4209 23.2691 36.9457 22.3298L36.3805 21.9732C34.8697 21.0245 33.3526 20.0529 32.111 18.5283Z" fill="#009EE2"/>
</svg>
