<svg width="86" height="138" viewBox="0 0 86 138" fill="none" xmlns="http://www.w3.org/2000/svg">
<path fill-rule="evenodd" clip-rule="evenodd" d="M8.26545 24.0345L9.88181 34.3754L46.4864 28.561L44.8716 18.2192L8.26545 24.0345ZM42.2113 117.484C23.0134 118.42 6.82067 126.852 0.626925 137.99L85.7341 133.838C78.3449 123.363 61.4787 116.544 42.2113 117.484ZM57.1972 88.6171L18.3189 94.822L18.6409 97.1679L57.5903 90.9603L57.1972 88.6171ZM37.8326 2.09723L9.84304 6.51962L9.53389 4.45186L37.5242 0.0286356L37.8326 2.09723ZM45.4607 14.6465L6.50873 20.7846L6.90438 23.1965L45.7835 16.9924L45.4607 14.6465ZM47.7786 29.4L8.89959 35.6049L9.22578 38.0218L48.1751 31.8135L47.7786 29.4ZM50.1 44.2237L11.2201 50.4279L11.6123 52.7703L50.4949 46.6373L50.1 44.2237ZM52.4867 58.9753L13.5388 65.1812L14.0032 67.5899L52.8823 61.3873L52.4867 58.9753ZM54.8079 73.7967L15.9289 80.0016L16.3245 82.4136L55.2027 76.2071L54.8079 73.7967ZM14.128 18.8844L12.2295 7.02961L35.7377 3.3113L37.6363 15.1661L14.128 18.8844ZM29.7875 9.50639L30.4109 13.7137L34.4793 13.0994L33.8559 8.89133C33.6594 7.7209 32.5772 6.86931 31.4755 7.06166C30.373 7.25482 29.591 8.33517 29.7875 9.50639ZM15.7965 11.7879L16.4878 15.9903L20.5528 15.3057L19.8623 11.1033C19.6641 9.93056 18.5854 9.15005 17.4837 9.34239C16.3778 9.46603 15.5965 10.5448 15.7965 11.7879ZM22.7593 10.6824L23.4499 14.8872L27.5149 14.2026L26.8243 9.99782C26.6973 8.824 25.6143 7.97244 24.4458 8.24008C23.3399 8.36371 22.629 9.43905 22.7593 10.6824ZM41.1821 20.9018L42.2775 27.7233L44.6903 27.3284L43.594 20.5046C43.4966 19.9534 42.9225 19.5648 42.2329 19.6666C41.5426 19.77 41.0821 20.2803 41.1821 20.9018ZM20.5025 85.4742L21.6692 92.2961L24.0124 91.9031L22.9153 85.0793C22.8187 84.5273 22.2446 84.1403 21.5543 84.2421C20.9377 84.4116 20.4755 84.9212 20.5025 85.4742ZM23.8787 84.8921L24.9785 91.7878L27.3897 91.3907L26.2933 84.5676C26.1975 84.0156 25.6219 83.6279 24.9331 83.7312C24.2444 83.8337 23.7856 84.4128 23.8787 84.8921ZM27.2609 84.4499L28.3547 91.2066L30.7013 90.8822L29.6695 83.9856C29.5729 83.4343 28.9334 83.1171 28.2432 83.2212C27.6232 83.3219 27.1618 83.8315 27.2609 84.4499ZM30.5668 83.8721L31.6654 90.6934L34.0767 90.2987L32.9796 83.4772C32.8829 82.9236 32.3114 82.6046 31.6193 82.6384C30.9325 82.8121 30.4719 83.3224 30.5668 83.8721ZM33.9438 83.2908L35.0435 90.1826L37.3868 89.7911L36.36 82.9654C36.2634 82.4126 35.619 82.0275 34.9982 82.1274C34.3087 82.2308 33.8505 82.8067 33.9438 83.2908ZM37.2565 82.852L38.3502 89.6047L40.7664 89.2785L39.7346 82.3818C39.638 81.8306 38.9986 81.5157 38.3075 81.6184C37.6188 81.7216 37.1565 82.2297 37.2565 82.852ZM40.6327 82.2692L41.7283 89.093L44.1411 88.6981L43.048 81.9422C42.9489 81.323 42.3079 81.0066 41.6845 81.0371C40.9968 81.21 40.5361 81.7179 40.6327 82.2692ZM44.0116 81.7574L45.0391 88.5838L47.5207 88.1863L46.4227 81.3602C46.3262 80.8106 45.6826 80.4262 44.9931 80.5295C44.3731 80.6287 43.9142 81.2055 44.0116 81.7574ZM47.3208 81.2483L48.418 88.0729L50.8308 87.678L49.7336 80.8527C49.6371 80.303 48.9927 79.9178 48.3727 80.0185C47.7511 80.1178 47.2209 80.6283 47.3208 81.2483ZM50.6971 80.6678L51.7239 87.4942L54.2046 87.0945L53.1117 80.341C53.0125 79.721 52.4402 79.402 51.7481 79.4357C51.062 79.6094 50.6005 80.1158 50.6971 80.6678ZM18.1752 70.513L19.2036 77.3401L21.6844 76.9419L20.5879 70.1157C20.4914 69.5668 19.9199 69.247 19.227 69.2808C18.5401 69.453 18.0794 69.9609 18.1752 70.513ZM21.4853 70.0046L22.6511 76.8242L24.9944 76.4327L23.8972 69.6074C23.8007 69.0577 23.2266 68.67 22.5356 68.7734C21.9163 68.8709 21.4582 69.4492 21.4853 70.0046ZM24.864 69.4905L25.9613 76.3167L28.3741 75.921L27.2727 69.0261C27.1803 68.546 26.6062 68.1574 25.9159 68.2608C25.2264 68.3633 24.7642 68.8721 24.864 69.4905ZM28.1709 68.915L29.3359 75.7347L31.6826 75.4134L30.6557 68.5847C30.4871 67.9681 29.9155 67.6491 29.2226 67.6829C28.6044 67.8509 28.1438 68.3596 28.1709 68.915ZM31.5488 68.401L32.6476 75.2262L35.0587 74.8283L33.9608 68.0061C33.8643 67.4564 33.2901 67.0663 32.5998 67.1681C31.911 67.2706 31.4531 67.8513 31.5488 68.401ZM34.9285 67.89L36.0256 74.713L38.368 74.32L37.3378 67.4248C37.2446 66.9415 36.5994 66.5564 35.9802 66.6571C35.2899 66.7597 34.8285 67.2685 34.9285 67.89ZM38.2352 67.3129L39.3323 74.1351L41.7484 73.8082L40.6497 66.9845C40.6192 66.3595 39.9805 66.0438 39.2861 66.0777C38.6 66.2513 38.1401 66.76 38.2352 67.3129ZM41.6147 66.7972L42.7119 73.6226L45.0551 73.2303L44.0267 66.4024C43.9309 65.8511 43.2872 65.4659 42.6699 65.6362C41.9762 65.6693 41.5174 66.2476 41.6147 66.7972ZM44.9928 66.2863L46.0204 73.115L48.5019 72.7153L47.4022 65.8219C47.309 65.3402 46.6646 64.9551 45.9758 65.0583C45.3543 65.1584 44.8249 65.6705 44.9928 66.2863ZM48.2994 65.7077L49.3967 72.5346L51.8128 72.2061L50.7157 65.3831C50.6157 64.7615 49.9747 64.4467 49.3505 64.4772C48.7347 64.6458 48.2021 65.158 48.2994 65.7077ZM15.7784 55.5551L16.8748 62.3789L19.2901 62.052L18.1905 55.1603C18.0945 54.6066 17.523 54.2876 16.8335 54.391C16.212 54.4917 15.6818 55.0039 15.7784 55.5551ZM19.1564 55.0411L20.1856 61.8697L22.6664 61.4707L21.5692 54.6462C21.4726 54.0949 20.8298 53.7097 20.2083 53.8105C19.5195 53.913 19.0614 54.4898 19.1564 55.0411ZM22.4665 54.5335L23.5629 61.3573L25.9757 60.9624L24.8793 54.1386C24.7827 53.5874 24.2078 53.1988 23.5191 53.3021C22.8976 53.4021 22.4361 53.9109 22.4665 54.5335ZM25.8427 53.9514L26.9391 60.7768L29.3553 60.4499L28.2566 53.627C28.1574 53.0054 27.5867 52.6871 26.8964 52.7897C26.2084 52.893 25.7461 53.4002 25.8427 53.9514ZM29.1528 53.4431L30.3203 60.2634L32.6635 59.8719L31.6343 53.044C31.469 52.4969 30.8941 52.1076 30.2046 52.211C29.5847 52.3117 29.1258 52.8885 29.1528 53.4431ZM32.5325 52.9321L33.6288 59.7551L36.0407 59.3587L34.9445 52.5372C34.8487 51.9852 34.2729 51.5951 33.5842 51.6992C32.8931 51.8018 32.4358 52.3801 32.5325 52.9321ZM35.9105 52.4197L37.0049 59.1723L39.3516 58.8503L38.3241 52.0247C38.224 51.4016 37.5838 51.0867 36.8935 51.1901C36.2726 51.2877 35.8105 51.7989 35.9105 52.4197ZM39.2172 51.8418L40.3142 58.6632L42.7262 58.2683L41.63 51.4469C41.6028 50.8899 40.9584 50.504 40.2723 50.6776C39.5819 50.7794 39.1213 51.2881 39.2172 51.8418ZM42.5968 51.3284L43.6931 58.1523L46.0364 57.7608L45.0071 50.9321C44.9114 50.3824 44.2678 49.9972 43.647 50.0972C42.9582 50.1981 42.5002 50.7772 42.5968 51.3284ZM45.906 50.8178L46.9998 57.5744L49.4848 57.2456L48.3875 50.4195C48.2876 49.8003 47.6482 49.4854 46.9579 49.5888C46.2667 49.6898 45.8061 50.1994 45.906 50.8178ZM13.4545 40.6626L14.4779 47.4187L16.8941 47.0934L15.7936 40.2016C15.7665 39.6446 15.1262 39.3298 14.5054 39.4274C13.8159 39.5315 13.2851 40.046 13.4545 40.6626ZM16.7605 40.0855L17.8575 46.907L20.2704 46.5129L19.1751 39.7587C19.0759 39.1379 18.5044 38.8189 17.8107 38.8527C17.194 39.0198 16.6638 39.532 16.7605 40.0855ZM20.1367 39.5043L21.1669 46.3994L23.6484 46.0004L22.4816 39.1784C22.4547 38.6254 21.8118 38.2402 21.1952 38.4081C20.5007 38.442 20.0435 39.021 20.1367 39.5043ZM23.4485 39.0616L24.5473 45.8876L26.9585 45.4928L25.8579 38.5972C25.7647 38.1154 25.1907 37.7292 24.5011 37.831C23.8803 37.9302 23.4181 38.4398 23.4485 39.0616ZM26.8247 38.4803L27.9211 45.3057L30.334 44.9116L29.2409 38.1557C29.141 37.5365 28.5695 37.2167 27.8766 37.2505C27.1896 37.4219 26.729 37.9306 26.8247 38.4803ZM30.134 37.972L31.3008 44.7947L33.644 44.4024L32.6155 37.5729C32.4503 37.0266 31.8762 36.6389 31.1885 36.8102C30.5659 36.8406 30.107 37.4189 30.134 37.972ZM33.5144 37.4602L34.6117 44.2863L37.0244 43.8891L35.9257 37.0654C35.8299 36.5141 35.2543 36.1272 34.5647 36.2289C33.8744 36.3323 33.4138 36.8418 33.5144 37.4602ZM36.8891 36.8782L37.9854 43.702L40.3287 43.3097L39.3053 36.5544C39.1343 35.9379 38.5634 35.6149 37.8705 35.6487C37.2539 35.8182 36.7933 36.3285 36.8891 36.8782ZM40.1984 36.3707L41.2962 43.1921L43.7091 42.7979L42.6112 35.975C42.5145 35.4214 41.9404 35.0336 41.2535 35.2065C40.5614 35.2403 40.1033 35.817 40.1984 36.3707ZM43.5788 35.8589L44.6759 42.6811L47.0184 42.2896L45.9915 35.4624C45.895 34.9112 45.2498 34.5261 44.6298 34.6268C43.9403 34.7293 43.4781 35.2381 43.5788 35.8589ZM11.0562 25.704L12.155 32.5301L14.5661 32.1337L13.4656 25.2404C13.3724 24.7587 12.7296 24.3735 12.0392 24.4761C11.4193 24.576 10.9571 25.0856 11.0562 25.704ZM14.4323 25.122L15.4593 31.9515L17.8753 31.6222L16.7791 24.8008C16.7486 24.1758 16.1074 23.8579 15.4833 23.8883C14.7972 24.062 14.2671 24.5757 14.4323 25.122ZM17.7417 24.6144L18.8388 31.4366L21.2516 31.0417L20.1545 24.2188C20.0578 23.6652 19.4837 23.2774 18.796 23.4503C18.1039 23.4841 17.6452 24.0648 17.7417 24.6144ZM21.1213 24.1027L22.1489 30.9283L24.6296 30.5301L23.4645 23.708C23.4375 23.155 22.7923 22.7699 22.1723 22.8706C21.482 22.9732 20.9518 23.4837 21.1213 24.1027ZM24.4287 23.5224L25.525 30.3462L27.9397 30.0209L26.8425 23.1956C26.7425 22.5756 26.1718 22.2566 25.4781 22.2904C24.8616 22.4606 24.4016 22.9678 24.4287 23.5224ZM27.8068 23.0107L28.9039 29.8345L31.3167 29.4404L30.2195 22.6143C30.123 22.0646 29.5489 21.676 28.862 21.8489C28.1691 21.8827 27.711 22.4595 27.8068 23.0107ZM31.1169 22.5032L32.2133 29.327L34.626 28.9321L33.5296 22.1067C33.4331 21.557 32.8582 21.1685 32.1687 21.2718C31.5479 21.3718 31.0864 21.8782 31.1169 22.5032ZM34.4915 21.9204L35.5894 28.7441L38.0056 28.4195L36.9068 21.5935C36.8077 20.9743 36.237 20.656 35.5459 20.7586C34.858 20.8627 34.3957 21.3699 34.4915 21.9204ZM37.8024 21.4128L38.9691 28.2332L41.31 27.841L40.2831 21.013C40.1179 20.4675 39.5421 20.0766 38.8567 20.2479C38.2325 20.2775 37.7754 20.8581 37.8024 21.4128ZM10.5866 38.8559L12.199 49.1296L48.8051 43.3143L47.1929 33.0422L10.5866 38.8559ZM12.908 53.6796L14.5906 63.9499L51.1959 58.1331L49.5142 47.8651L12.908 53.6796ZM15.2981 68.5L16.9111 78.7737L53.5149 72.9577L51.9026 62.6848L15.2981 68.5ZM17.6151 83.2519L19.3004 93.5925L55.8362 87.7807L54.2214 77.439L17.6151 83.2519ZM20.006 98.073L23.4312 119.86C23.979 119.691 24.5262 119.527 25.1409 119.288L22.5569 103.366C22.341 101.782 23.6599 100.327 25.5876 99.9556C27.517 99.6516 29.2342 100.678 29.4552 102.336L31.8682 117.642C32.4881 117.541 33.0393 117.444 33.6601 117.344L31.2464 102.04C31.0304 100.453 32.3453 98.9314 34.2059 98.6308C36.0674 98.3293 37.8542 99.3564 38.0703 100.944L40.5686 116.523C41.119 116.426 41.6729 116.399 42.158 116.375L42.3658 116.365L39.8622 100.646C39.6462 99.0599 40.9618 97.5369 42.8217 97.2363C44.7527 96.9339 46.47 97.9628 46.7555 99.5454L49.3819 116.37C50.0094 116.409 50.6361 116.446 51.2637 116.485L48.5467 99.2505C48.2645 97.7343 49.6455 96.14 51.507 95.8409C53.3678 95.5426 55.156 96.5657 55.3754 98.2213L58.4662 117.453C59.1665 117.557 59.9391 117.728 60.6421 117.902L56.6122 92.2585L20.006 98.073Z" fill="#009EE2"/>
</svg>
