<svg width="85" height="71" viewBox="0 0 85 71" fill="none" xmlns="http://www.w3.org/2000/svg">
<path fill-rule="evenodd" clip-rule="evenodd" d="M6.59152 18.8023V20.469V34.0008V35.1098V37.3294V59.6042V67.099L3.88626 70.7741H11.4491H23.0366H33.0975L30.8779 67.099H30.8091V37.8846L32.2661 33.8608H27.062H28.7263H30.7395C31.2244 27.963 36.2204 23.2446 42.187 23.2446C48.2936 23.2446 53.2207 27.963 53.7056 33.8608H55.7188H57.4534H52.1798L53.6376 37.8846V67.099H53.568L50.9316 70.7741H61.2708H72.4415H80.0747L77.9232 67.099V59.6042V37.3294V35.1098V34.0008V20.469V18.8023V14.0159V13.3903L84.237 8.46384H84.4451V8.255V7.97813H77.9232V3.19017V1.87392V0.762547V0H6.59152V0.762547V1.87392V3.19017V7.97813H3.05176e-05V8.11814V8.46384H0.346504L6.59152 13.3903V14.0159V18.8023Z" fill="#009EE2"/>
</svg>
