<svg width="56" height="59" viewBox="0 0 56 59" fill="none" xmlns="http://www.w3.org/2000/svg">
<path d="M54 29.5C54 35.6168 52.1119 41.2671 48.9185 45.8345C44.1827 52.608 36.5763 57 28 57C26.4731 57 24.977 56.8608 23.5224 56.5937C11.2967 54.3491 2 43.0729 2 29.5C2 25.8415 2.67545 22.3499 3.90163 19.157C7.76582 9.09498 17.0995 2 28 2C30.3494 2 32.6261 2.3296 34.7909 2.94747C45.857 6.10593 54 16.7972 54 29.5Z" fill="#009EE2"/>
<path d="M48.9185 45.8345C47.9378 44.4467 46.4872 43.3798 44.382 43.7277C39.5158 44.5319 42.101 40.5109 38.6034 42.1193C35.8054 43.406 33.7879 47.0517 33.129 48.7137C32.9262 47.6951 32.1557 45.4647 30.6959 44.6927C28.8711 43.7277 28.2628 45.3361 27.1983 43.7277C26.1339 42.1193 26.1339 39.8675 25.2214 37.6157C24.309 35.3639 28.2628 31.9863 30.6959 33.273C33.129 34.5597 34.6496 33.7555 35.8662 35.6856C37.0827 37.6157 38.6034 40.0283 38.6034 33.273C38.6034 26.5177 41.6448 23.4617 43.0134 23.6226C44.382 23.7834 48.6399 22.1747 47.8795 20.5666C47.1192 18.9585 43.0134 18.154 43.0134 16.7064C43.0134 15.2589 44.8382 12.2033 43.0134 10.7557C41.1886 9.30813 36.6265 6.413 33.129 6.73468C29.6314 7.05636 28.5538 8.50487 28.5538 9.7916C28.5538 11.0783 33.129 13.4913 30.6959 15.0989C28.2628 16.7064 20.3553 19.279 20.3553 16.7064C20.3553 14.1338 19.8991 8.66523 21.4198 8.66523C22.9404 8.66523 23.3966 4.64421 24.309 4.80505C25.2214 4.96589 29.0231 3.19767 30.6959 4.00136C31.2087 4.24776 32.8936 3.78369 34.7909 2.94747M48.9185 45.8345C52.1119 41.2671 54 35.6168 54 29.5C54 16.7972 45.857 6.10593 34.7909 2.94747M48.9185 45.8345C44.1827 52.608 36.5763 57 28 57C26.4731 57 24.977 56.8608 23.5224 56.5937M23.5224 56.5937C23.7189 55.3973 23.976 54.4087 24.309 53.8606C25.6777 51.6089 30.2397 53.2173 30.6959 52.0914C31.1521 50.9655 29.1752 49.6788 27.1983 48.7137C25.2215 47.7487 21.876 46.7836 21.4198 42.1193C20.9636 37.4549 18.8346 38.2591 18.3784 37.6157C17.9222 36.9724 12.5998 35.2031 10.9266 31.9863C9.25342 28.7695 10.9271 23.3009 10.9266 21.8533C10.9263 20.8301 6.73139 19.7316 3.90163 19.157M23.5224 56.5937C11.2967 54.3491 2 43.0729 2 29.5C2 25.8415 2.67545 22.3499 3.90163 19.157M3.90163 19.157C7.76582 9.09498 17.0995 2 28 2C30.3494 2 32.6261 2.3296 34.7909 2.94747" stroke="#F2F2F2" stroke-width="4" stroke-linecap="square" stroke-linejoin="round"/>
</svg>
